<?xml version="1.0" encoding="UTF-8" standalone="no"?>
<svg
   xmlns:dc="http://purl.org/dc/elements/1.1/"
   xmlns:cc="http://creativecommons.org/ns#"
   xmlns:rdf="http://www.w3.org/1999/02/22-rdf-syntax-ns#"
   xmlns:svg="http://www.w3.org/2000/svg"
   xmlns="http://www.w3.org/2000/svg"
   xmlns:sodipodi="http://sodipodi.sourceforge.net/DTD/sodipodi-0.dtd"
   xmlns:inkscape="http://www.inkscape.org/namespaces/inkscape"
   viewBox="0 0 247.75 246.75"
   width="223px"
   height="222.09px"
   version="1.1"
   id="svg7003"
   sodipodi:docname="olives2.svg"
   inkscape:version="0.92.4 (5da689c313, 2019-01-14)">
  <metadata
     id="metadata7007">
    <rdf:RDF>
      <cc:Work
         rdf:about="">
        <dc:format>image/svg+xml</dc:format>
        <dc:type
           rdf:resource="http://purl.org/dc/dcmitype/StillImage" />
        <dc:title>olives</dc:title>
      </cc:Work>
    </rdf:RDF>
  </metadata>
  <sodipodi:namedview
     pagecolor="#ffffff"
     bordercolor="#666666"
     borderopacity="1"
     objecttolerance="10"
     gridtolerance="10"
     guidetolerance="10"
     inkscape:pageopacity="0"
     inkscape:pageshadow="2"
     inkscape:window-width="716"
     inkscape:window-height="480"
     id="namedview7005"
     showgrid="false"
     inkscape:zoom="1.0626323"
     inkscape:cx="111.5"
     inkscape:cy="111.045"
     inkscape:window-x="0"
     inkscape:window-y="0"
     inkscape:window-maximized="0"
     inkscape:current-layer="svg7003" />
  <defs
     id="defs6962">
    <style
       id="style6960">.cls-1{opacity:0.2;}.cls-2{fill:#534741;}.cls-3{fill:#3e2723;}</style>
  </defs>
  <title
     id="title6964">olives</title>
  <g
     id="Layer_2"
     data-name="Layer 2"
     style="fill:#d5ce8b;fill-opacity:0.54143649">
    <g
       id="Toppings"
       style="fill:#d5ce8b;fill-opacity:0.54143649">
      <g
         id="Olives"
         style="fill:#d5ce8b;fill-opacity:0.54143649">
        <g
           id="Olives-2"
           data-name="Olives"
           class="cls-1"
           style="fill:#d5ce8b;fill-opacity:0.54143649">
          <path
             class="cls-2"
             d="M85.38,3a15.38,15.38,0,1,0,15.37,15.38A15.37,15.37,0,0,0,85.38,3Zm0,22.28a6.91,6.91,0,1,1,6.9-6.9A6.9,6.9,0,0,1,85.38,25.28Z"
             id="path6966"
             style="fill:#d5ce8b;fill-opacity:0.54143649" />
          <path
             class="cls-2"
             d="M17.38,81A15.38,15.38,0,1,0,32.75,96.38,15.37,15.37,0,0,0,17.38,81Zm0,22.28a6.91,6.91,0,1,1,6.9-6.9A6.9,6.9,0,0,1,17.38,103.28Z"
             id="path6968"
             style="fill:#d5ce8b;fill-opacity:0.54143649" />
          <path
             class="cls-2"
             d="M100.38,216a15.38,15.38,0,1,0,15.37,15.38A15.37,15.37,0,0,0,100.38,216Zm0,22.28a6.91,6.91,0,1,1,6.9-6.9A6.9,6.9,0,0,1,100.38,238.28Z"
             id="path6970"
             style="fill:#d5ce8b;fill-opacity:0.54143649" />
          <path
             class="cls-2"
             d="M232.38,143a15.38,15.38,0,1,0,15.37,15.38A15.37,15.37,0,0,0,232.38,143Zm0,22.28a6.91,6.91,0,1,1,6.9-6.9A6.9,6.9,0,0,1,232.38,165.28Z"
             id="path6972"
             style="fill:#d5ce8b;fill-opacity:0.54143649" />
          <path
             class="cls-2"
             d="M186.38,25a15.38,15.38,0,1,0,15.37,15.38A15.37,15.37,0,0,0,186.38,25Zm0,22.28a6.91,6.91,0,1,1,6.9-6.9A6.9,6.9,0,0,1,186.38,47.28Z"
             id="path6974"
             style="fill:#d5ce8b;fill-opacity:0.54143649" />
          <path
             class="cls-2"
             d="M157.38,150a15.38,15.38,0,1,0,15.37,15.38A15.37,15.37,0,0,0,157.38,150Zm0,22.28a6.91,6.91,0,1,1,6.9-6.9A6.9,6.9,0,0,1,157.38,172.28Z"
             id="path6976"
             style="fill:#d5ce8b;fill-opacity:0.54143649" />
          <path
             class="cls-2"
             d="M121.38,74a15.38,15.38,0,1,0,15.37,15.38A15.37,15.37,0,0,0,121.38,74Zm0,22.28a6.91,6.91,0,1,1,6.9-6.9A6.9,6.9,0,0,1,121.38,96.28Z"
             id="path6978"
             style="fill:#d5ce8b;fill-opacity:0.54143649" />
          <path
             class="cls-2"
             d="M63.38,135a15.38,15.38,0,1,0,15.37,15.38A15.37,15.37,0,0,0,63.38,135Zm0,22.28a6.91,6.91,0,1,1,6.9-6.9A6.9,6.9,0,0,1,63.38,157.28Z"
             id="path6980"
             style="fill:#d5ce8b;fill-opacity:0.54143649" />
        </g>
        <g
           id="Olives-3"
           data-name="Olives"
           style="fill:#d5ce8b;fill-opacity:0.54143649">
          <path
             class="cls-3"
             d="M83.38,0A15.38,15.38,0,1,0,98.75,15.38,15.37,15.37,0,0,0,83.38,0Zm0,22.28a6.91,6.91,0,1,1,6.9-6.9A6.9,6.9,0,0,1,83.38,22.28Z"
             id="path6983"
             style="fill:#d5ce8b;fill-opacity:0.54143649" />
          <path
             class="cls-3"
             d="M15.38,78A15.38,15.38,0,1,0,30.75,93.38,15.37,15.37,0,0,0,15.38,78Zm0,22.28a6.91,6.91,0,1,1,6.9-6.9A6.9,6.9,0,0,1,15.38,100.28Z"
             id="path6985"
             style="fill:#d5ce8b;fill-opacity:0.54143649" />
          <path
             class="cls-3"
             d="M98.38,213a15.38,15.38,0,1,0,15.37,15.38A15.37,15.37,0,0,0,98.38,213Zm0,22.28a6.91,6.91,0,1,1,6.9-6.9A6.9,6.9,0,0,1,98.38,235.28Z"
             id="path6987"
             style="fill:#d5ce8b;fill-opacity:0.54143649" />
          <path
             class="cls-3"
             d="M230.38,140a15.38,15.38,0,1,0,15.37,15.38A15.37,15.37,0,0,0,230.38,140Zm0,22.28a6.91,6.91,0,1,1,6.9-6.9A6.9,6.9,0,0,1,230.38,162.28Z"
             id="path6989"
             style="fill:#d5ce8b;fill-opacity:0.54143649" />
          <path
             class="cls-3"
             d="M184.38,22a15.38,15.38,0,1,0,15.37,15.38A15.37,15.37,0,0,0,184.38,22Zm0,22.28a6.91,6.91,0,1,1,6.9-6.9A6.9,6.9,0,0,1,184.38,44.28Z"
             id="path6991"
             style="fill:#d5ce8b;fill-opacity:0.54143649" />
          <path
             class="cls-3"
             d="M155.38,147a15.38,15.38,0,1,0,15.37,15.38A15.37,15.37,0,0,0,155.38,147Zm0,22.28a6.91,6.91,0,1,1,6.9-6.9A6.9,6.9,0,0,1,155.38,169.28Z"
             id="path6993"
             style="fill:#d5ce8b;fill-opacity:0.54143649" />
          <path
             class="cls-3"
             d="M119.38,71a15.38,15.38,0,1,0,15.37,15.38A15.37,15.37,0,0,0,119.38,71Zm0,22.28a6.91,6.91,0,1,1,6.9-6.9A6.9,6.9,0,0,1,119.38,93.28Z"
             id="path6995"
             style="fill:#d5ce8b;fill-opacity:0.54143649" />
          <path
             class="cls-3"
             d="M61.38,132a15.38,15.38,0,1,0,15.37,15.38A15.37,15.37,0,0,0,61.38,132Zm0,22.28a6.91,6.91,0,1,1,6.9-6.9A6.9,6.9,0,0,1,61.38,154.28Z"
             id="path6997"
             style="fill:#d5ce8b;fill-opacity:0.54143649" />
        </g>
      </g>
    </g>
  </g>
</svg>
